<svg baseProfile="full" xmlns="http://www.w3.org/2000/svg" width="463" height="91"><path d="M160.01 3v79.764h-4.394V88h18.376v-5.636h-3.995v-3.608H168.4v-67.74L160.01 3zM303.425 3v79.764h4.395V88h-18.377v-5.636h3.995v-3.608h1.598v-67.74L303.426 3zM300 73c51.472 0 160 10 160 10v1s-109.56-8-160-8M163 76C112.56 76 3 84 3 84v-1s108.528-10 160-10M299.776 76.11c-22.43-.47-45.575-.758-68.534-.758-22.696 0-45.21.333-66.675.863m-.008-2.98c21.465-.67 43.983-1.09 66.682-1.09 22.867 0 45.918.362 68.264.95" stroke="#1c9776" stroke-width="26.166" stroke-linecap="round" stroke-linejoin="round" fill="none"/></svg>