<?xml version="1.0" encoding="utf-8"?>
<!DOCTYPE svg PUBLIC "-//W3C//DTD SVG 1.1//EN" "http://www.w3.org/Graphics/SVG/1.1/DTD/svg11.dtd">
<svg version="1.1" baseProfile="full" 
	xmlns="http://www.w3.org/2000/svg"
	xmlns:xlink="http://www.w3.org/1999/xlink"
	xmlns:ev="http://www.w3.org/2001/xml-events"
	width="463px" height="91px">
<path fill="none" fill-rule="evenodd" d="M160.01 3.00001 C160.01 3.00001 160.01 82.7645 160.01 82.7645 C160.01 82.7645 155.616 82.7645 155.616 82.7645 C155.616 82.7645 155.616 88.0002 155.616 88.0002 C155.616 88.0002 173.992 88.0002 173.992 88.0002 C173.992 88.0002 173.992 82.3637 173.992 82.3637 C173.992 82.3637 169.997 82.3637 169.997 82.3637 C169.997 82.3637 169.997 78.7562 169.997 78.7562 C169.997 78.7562 168.4 78.7562 168.4 78.7562 C168.4 78.7562 168.4 11.0166 168.4 11.0166 C168.4 11.0166 160.01 3.00001 160.01 3.00001 Z" stroke="rgb(28,151,118)" stroke-width="26.1659px" stroke-linecap="round" stroke-linejoin="round"/>
<path fill="none" fill-rule="evenodd" d="M303.425 3.00001 C303.425 3.00001 303.425 82.7645 303.425 82.7645 C303.425 82.7645 307.82 82.7645 307.82 82.7645 C307.82 82.7645 307.82 88.0002 307.82 88.0002 C307.82 88.0002 289.443 88.0002 289.443 88.0002 C289.443 88.0002 289.443 82.3637 289.443 82.3637 C289.443 82.3637 293.438 82.3637 293.438 82.3637 C293.438 82.3637 293.438 78.7562 293.438 78.7562 C293.438 78.7562 295.036 78.7562 295.036 78.7562 C295.036 78.7562 295.036 11.0166 295.036 11.0166 C295.036 11.0166 303.425 3.00001 303.425 3.00001 Z" stroke="rgb(28,151,118)" stroke-width="26.1659px" stroke-linecap="round" stroke-linejoin="round"/>
<path fill="none" fill-rule="evenodd" d="M300 73.0001 C351.472 73.0001 460 83 460 83 C460 83 460 84 460 84 C460 84 350.441 76 300 76" stroke="rgb(28,151,118)" stroke-width="26.1659px" stroke-linecap="round" stroke-linejoin="round"/>
<path fill="none" fill-rule="evenodd" d="M163 76 C112.559 76 3.00001 84 3.00001 84 C3.00001 84 3.00001 83 3.00001 83 C3.00001 83 111.528 73.0001 163 73.0001" stroke="rgb(28,151,118)" stroke-width="26.1659px" stroke-linecap="round" stroke-linejoin="round"/>
<path fill="none" fill-rule="evenodd" d="M299.776 76.11 C277.346 75.6409 254.201 75.3515 231.242 75.3515 C208.546 75.3515 186.031 75.6847 164.567 76.2154 M164.559 73.2349 C186.025 72.5654 208.543 72.1447 231.242 72.1447 C254.109 72.1447 277.16 72.507 299.506 73.0944" stroke="rgb(28,151,118)" stroke-width="26.1659px" stroke-linecap="round" stroke-linejoin="round"/>
</svg>